<?xml version="1.0" encoding="UTF-8"?>
<svg width="12px" height="12px" viewBox="0 0 12 12" version="1.1" xmlns="http://www.w3.org/2000/svg" xmlns:xlink="http://www.w3.org/1999/xlink">
    <!-- Generator: Sketch 45.1 (43504) - http://www.bohemiancoding.com/sketch -->
    <title>ic_cancel</title>
    <desc>Created with Sketch.</desc>
    <defs></defs>
    <g id="Symbols" stroke="none" stroke-width="1" fill-rule="evenodd">
        <g id="ic_cancel" transform="translate(-2.000000, -2.000000)" fill-rule="nonzero">
            <g id="cross">
                <g transform="translate(2.666667, 2.666667)">
                    <path d="M0.195262146,1.13807119 L9.62335256,10.5661616 C9.88370209,10.8265111 10.3058121,10.8265111 10.5661616,10.5661616 C10.8265111,10.3058121 10.8265111,9.88370209 10.5661616,9.62335256 L1.13807119,0.195262146 C0.87772166,-0.065087382 0.455611674,-0.065087382 0.195262146,0.195262146 C-0.065087382,0.455611674 -0.065087382,0.87772166 0.195262146,1.13807119 Z" id="Line"></path>
                    <path d="M9.52859548,0.195262146 L0.195262146,9.52859548 C-0.065087382,9.78894501 -0.065087382,10.211055 0.195262146,10.4714045 C0.455611674,10.731754 0.87772166,10.731754 1.13807119,10.4714045 L10.4714045,1.13807119 C10.731754,0.87772166 10.731754,0.455611674 10.4714045,0.195262146 C10.211055,-0.065087382 9.78894501,-0.065087382 9.52859548,0.195262146 Z" id="Line"></path>
                </g>
            </g>
        </g>
    </g>
</svg>