<?xml version="1.0" encoding="UTF-8"?>
<svg width="13px" height="13px" viewBox="0 0 13 13" version="1.1" xmlns="http://www.w3.org/2000/svg" xmlns:xlink="http://www.w3.org/1999/xlink">
    <!-- Generator: Sketch 45.1 (43504) - http://www.bohemiancoding.com/sketch -->
    <title>ic_search copy</title>
    <desc>Created with Sketch.</desc>
    <defs></defs>
    <g id="Page-1" stroke="none" stroke-width="1" fill="none" fill-rule="evenodd">
        <g id="Mobile-Portrait" transform="translate(-154.000000, -440.000000)" fill="#000000">
            <g id="Group" transform="translate(140.000000, 426.025699)">
                <g id="ic_search" transform="translate(12.572438, 12.419171)">
                    <g id="search">
                        <g transform="translate(2.000000, 2.000000)" fill-rule="nonzero">
                            <path d="M5.33333333,10.6666667 C2.38781467,10.6666667 0,8.278852 0,5.33333333 C0,2.38781467 2.38781467,0 5.33333333,0 C8.278852,0 10.6666667,2.38781467 10.6666667,5.33333333 C10.6666667,8.278852 8.278852,10.6666667 5.33333333,10.6666667 Z M5.33333333,9.33333333 C7.54247233,9.33333333 9.33333333,7.54247233 9.33333333,5.33333333 C9.33333333,3.12419433 7.54247233,1.33333333 5.33333333,1.33333333 C3.12419433,1.33333333 1.33333333,3.12419433 1.33333333,5.33333333 C1.33333333,7.54247233 3.12419433,9.33333333 5.33333333,9.33333333 Z" id="Oval-8"></path>
                            <path d="M11.8047379,10.8619288 L9.44771525,8.50490621 C9.18736572,8.24455668 8.76525574,8.24455668 8.50490621,8.50490621 C8.24455668,8.76525574 8.24455668,9.18736572 8.50490621,9.44771525 L10.8619288,11.8047379 C11.1222783,12.0650874 11.5443883,12.0650874 11.8047379,11.8047379 C12.0650874,11.5443883 12.0650874,11.1222783 11.8047379,10.8619288 Z" id="Line"></path>
                        </g>
                    </g>
                </g>
            </g>
        </g>
    </g>
</svg>