<?xml version="1.0" encoding="UTF-8"?>
<svg width="17px" height="18px" viewBox="0 0 17 18" version="1.1" xmlns="http://www.w3.org/2000/svg" xmlns:xlink="http://www.w3.org/1999/xlink">
    <!-- Generator: Sketch 45.2 (43514) - http://www.bohemiancoding.com/sketch -->
    <title>Group</title>
    <desc>Created with Sketch.</desc>
    <defs></defs>
    <g id="Page-1" stroke="none" stroke-width="1" fill-rule="evenodd">
        <g id="LANDING" transform="translate(-1103.000000, -14027.000000)" fill-rule="nonzero">
            <g id="footer" transform="translate(-75.000000, 13474.000000)">
                <g id="social" transform="translate(1173.000000, 546.848717)">
                    <g id="Group" transform="translate(5.000000, 7.000000)">
                        <path d="M12.2887093,0 L4.68373643,0 C2.10112573,0 0,2.093 0,4.6655 L0,12.2407 C0,14.8133 2.10112573,16.9062 4.68373643,16.9062 L12.2887093,16.9062 C14.8715208,16.9062 16.9726465,14.8132 16.9726465,12.2407 L16.9726465,4.6655 C16.9727469,2.093 14.8715208,0 12.2887093,0 Z M15.4668514,12.2407 C15.4668514,13.9862 14.04117,15.4062 12.2888097,15.4062 L4.68373643,15.4062 C2.93147648,15.4063 1.50589545,13.9862 1.50589545,12.2407 L1.50589545,4.6655 C1.50589545,2.9201 2.93147648,1.5 4.68373643,1.5 L12.2887093,1.5 C14.0410696,1.5 15.466751,2.9201 15.466751,4.6655 L15.466751,12.2407 L15.4668514,12.2407 Z" id="Shape"></path>
                        <path d="M8.37342158,4 C5.9618806,4 4,5.9542 4,8.3563 C4,10.7583 5.9618806,12.7124 8.37342158,12.7124 C10.7849626,12.7124 12.7468432,10.7583 12.7468432,8.3563 C12.7468432,5.9542 10.7849626,4 8.37342158,4 Z M8.37342158,11.2123 C6.79233174,11.2123 5.50589545,9.9311 5.50589545,8.3562 C5.50589545,6.7812 6.79223135,5.4999 8.37342158,5.4999 C9.9546118,5.4999 11.2409477,6.7812 11.2409477,8.3562 C11.2409477,9.9311 9.95451141,11.2123 8.37342158,11.2123 Z" id="Shape"></path>
                        <path d="M13.1043233,3 C12.8141875,3 12.5291717,3.117 12.3242695,3.322 C12.1183634,3.526 12,3.81 12,4.1 C12,4.3891 12.1184638,4.673 12.3242695,4.878 C12.5290713,5.082 12.8141875,5.2 13.1043233,5.2 C13.3954631,5.2 13.6795754,5.082 13.8853811,4.878 C14.0911868,4.673 14.2086467,4.389 14.2086467,4.1 C14.2086467,3.81 14.0911868,3.526 13.8853811,3.322 C13.6805793,3.117 13.3954631,3 13.1043233,3 Z" id="Shape"></path>
                    </g>
                </g>
            </g>
        </g>
    </g>
</svg>