<?xml version="1.0" encoding="UTF-8"?>
<svg width="10px" height="18px" viewBox="0 0 10 18" version="1.1" xmlns="http://www.w3.org/2000/svg" xmlns:xlink="http://www.w3.org/1999/xlink">
    <!-- Generator: Sketch 45.2 (43514) - http://www.bohemiancoding.com/sketch -->
    <title>Shape</title>
    <desc>Created with Sketch.</desc>
    <defs></defs>
    <g id="Page-1" stroke="none" stroke-width="1" fill="none" fill-rule="evenodd">
        <g id="LANDING" transform="translate(-162.000000, -10493.000000)" fill-rule="nonzero" fill="#000000">
            <g id="team" transform="translate(69.000000, 9460.000000)">
                <g id="main-team" transform="translate(83.000000, 747.000000)">
                    <g id="Group-30">
                        <g id="flaticon1499441943-svg" transform="translate(0.777555, 280.011491)">
                            <path d="M18.8629012,6.00353886 L16.6573059,6 C14.1793952,6 12.5780605,7.64291636 12.5780605,10.1857652 L12.5780605,12.1156832 L10.360433,12.1156832 C10.1688037,12.1156832 10.0136246,12.2710392 10.0136246,12.4626685 L10.0136246,15.2588998 C10.0136246,15.4505291 10.1689806,15.6057082 10.360433,15.6057082 L12.5780605,15.6057082 L12.5780605,22.6614899 C12.5780605,22.8531192 12.7332395,23.0082983 12.9248689,23.0082983 L15.8182419,23.0082983 C16.0098712,23.0082983 16.1650503,22.8529423 16.1650503,22.6614899 L16.1650503,15.6057082 L18.757974,15.6057082 C18.9496033,15.6057082 19.1047824,15.4505291 19.1047824,15.2588998 L19.105844,12.4626685 C19.105844,12.3706581 19.0692168,12.2825405 19.0042787,12.2174254 C18.9393406,12.1523104 18.8508691,12.1156832 18.7588587,12.1156832 L16.1650503,12.1156832 L16.1650503,10.4796676 C16.1650503,9.69333261 16.352433,9.29414905 17.3767564,9.29414905 L18.8625473,9.29361822 C19.0539997,9.29361822 19.2091788,9.13826221 19.2091788,8.94680981 L19.2091788,6.35034727 C19.2091788,6.15907182 19.0541767,6.00389275 18.8629012,6.00353886 Z" id="Shape"></path>
                        </g>
                    </g>
                </g>
            </g>
        </g>
    </g>
</svg>