<?xml version="1.0" encoding="UTF-8"?>
<svg width="19px" height="18px" viewBox="0 0 19 18" version="1.1" xmlns="http://www.w3.org/2000/svg" xmlns:xlink="http://www.w3.org/1999/xlink">
    <!-- Generator: Sketch 45.2 (43514) - http://www.bohemiancoding.com/sketch -->
    <title>LinkedIn</title>
    <desc>Created with Sketch.</desc>
    <defs></defs>
    <g id="Page-1" stroke="none" stroke-width="1" fill="none" fill-rule="evenodd">
        <g id="LANDING" transform="translate(-202.000000, -10493.000000)" fill-rule="nonzero" fill="#000000">
            <g id="team" transform="translate(69.000000, 9460.000000)">
                <g id="main-team" transform="translate(83.000000, 747.000000)">
                    <g id="Group-30">
                        <g id="flaticon1499441962-svg" transform="translate(50.777555, 286.089219)">
                            <path d="M17.8777986,10.4969413 L17.8777986,17.1064775 L14.0460075,17.1064775 L14.0460075,10.9396082 C14.0460075,9.3904403 13.4917802,8.33319382 12.1047989,8.33319382 C11.0460145,8.33319382 10.4159311,9.04570047 10.1387344,9.73493074 C10.0376484,9.98132786 10.0116287,10.3242804 10.0116287,10.6691865 L10.0116287,17.1064775 L6.1785491,17.1064775 C6.1785491,17.1064775 6.23017279,6.66182496 6.1785491,5.57968107 L10.0112546,5.57968107 L10.0112546,7.21355832 C10.003482,7.22577842 9.9933817,7.23895452 9.98606627,7.25080053 L10.0112546,7.25080053 L10.0112546,7.21355832 C10.520467,6.42926898 11.4298669,5.30888531 13.4653865,5.30888531 C15.9872577,5.30884375 17.8777986,6.95635431 17.8777986,10.4969413 Z M2.16898463,0.0231932512 C0.857693078,0.0231932512 3.97903932e-13,0.883297097 3.97903932e-13,2.01436296 C3.97903932e-13,3.12078079 0.832878793,4.00698744 2.11810911,4.00698744 L2.14371313,4.00698744 C3.48040088,4.00698744 4.31170021,3.12094705 4.31170021,2.01436296 C4.28651184,0.883297097 3.48040088,0.0231932512 2.16898463,0.0231932512 Z M0.22765132,17.1064775 L4.05927617,17.1064775 L4.05927617,5.57968107 L0.22765132,5.57968107 L0.22765132,17.1064775 Z" id="LinkedIn"></path>
                        </g>
                    </g>
                </g>
            </g>
        </g>
    </g>
</svg>